<svg id="Capa_1" data-name="Capa 1" xmlns="http://www.w3.org/2000/svg" viewBox="0 0 72 72"><defs><style>.cls-1{fill:#1d1d1b;}.cls-2{fill:#fff;}</style></defs><title>favicon</title><circle class="cls-1" cx="36" cy="36" r="35.5"/><path class="cls-2" d="M43.77,15.75c5.11,0,9.27,3.12,9.27,6.94v12c0,3.82-4.16,6.94-9.27,6.94H13.38v8c0,.74-.83,1.31-1.76,1.31s-1.76-.57-1.76-1.31V22.69c0-3.82,4.16-6.94,9.27-6.94ZM13.38,39H43.77C47,39,49.58,37,49.58,34.67v-12c0-2.37-2.58-4.31-5.81-4.31H19.13c-3.17,0-5.75,1.94-5.75,4.31Z"/><path class="cls-2" d="M60.63,25c.86,0,1.51.51,1.51,1.17a1.37,1.37,0,0,1-1.51,1.18H36.15c-2.73,0-5,1.72-5,3.83V50.07c0,2.11,2.23,3.83,5,3.83H60.63a1.37,1.37,0,0,1,1.51,1.18c0,.66-.65,1.17-1.51,1.17H36.15c-4.4,0-8-2.78-8-6.18V31.13c0-3.4,3.59-6.18,8-6.18Z"/></svg>